#!OML:ASF F:\VICON\USERDATA\INSTALL\Justin_Nancy\Justin_Nancy.ASF
:FULLY-SPECIFIED
:DEGREES
93
root 0.899068 17.8309 -15.5376 6.62093 -2.88528 0.906754
lowerback 4.84795 -0.235994 -2.36686
upperback -0.564738 -0.367456 2.73039
thorax -3.27181 -0.115219 4.18619
lowerneck -16.3135 -4.1458 -10.6498
upperneck 22.3315 -4.27212 5.41588
head 10.1813 -2.25864 3.11158
rclavicle -1.88845e-014 -1.19271e-014
rhumerus -33.2556 -8.82681 -79.1398
rradius 36.3811
rwrist 2.70832
rhand -9.59671 13.2486
rfingers 7.12502
rthumb 16.372 -16.0804
lclavicle -1.88845e-014 -1.19271e-014
lhumerus -31.8237 9.71108 84.8684
lradius 31.1851
lwrist -7.43301
lhand -10.1041 28.0127
lfingers 7.12502
lthumb 15.8834 57.3812
rfemur -12.5392 5.47893 19.1067
rtibia 22.4318
rfoot -11.3694 -10.3141
rtoes 5.77034
lfemur -10.8695 -3.45555 -19.8634
ltibia 19.2787
lfoot -11.7019 6.15178
ltoes -1.48536
94
root 0.896494 17.8309 -15.5416 6.65383 -2.84305 0.890519
lowerback 4.77271 -0.235847 -2.33895
upperback -0.503495 -0.365813 2.71481
thorax -3.16637 -0.11798 4.15232
lowerneck -16.3425 -4.14335 -10.6535
upperneck 22.2974 -4.27436 5.46071
head 10.1756 -2.2538 3.12731
rclavicle 1.25234e-014 1.19271e-014
rhumerus -33.1442 -8.91939 -79.1861
rradius 36.4732
rwrist 2.79954
rhand -9.56047 13.0397
rfingers 7.12502
rthumb 16.4069 -16.2864
lclavicle 1.25234e-014 1.19271e-014
lhumerus -31.7356 9.6623 84.8773
lradius 31.1157
lwrist -7.03079
lhand -10.6889 26.9267
lfingers 7.12502
lthumb 15.3202 56.3392
rfemur -12.5716 5.49904 19.1377
rtibia 22.4186
rfoot -11.3789 -10.4124
rtoes 5.49268
lfemur -10.8856 -3.50959 -19.818
ltibia 19.2569
lfoot -11.7744 6.16804
ltoes -1.25384
95
root 0.895398 17.8291 -15.5445 6.62094 -2.89607 0.936786
lowerback 4.82761 -0.222422 -2.39558
upperback -0.472872 -0.352948 2.68996
thorax -3.16658 -0.111248 4.15793
lowerneck -16.2781 -4.10779 -10.6563
upperneck 22.2375 -4.24038 5.505
head 10.1395 -2.23333 3.14835
rclavicle 5.66536e-015 -1.11319e-014
rhumerus -33.1153 -8.89844 -79.2344
rradius 36.5668
rwrist 2.82721
rhand -9.67915 13.2523
rfingers 7.12502
rthumb 16.2926 -16.0832
lclavicle 5.66536e-015 -1.11319e-014
lhumerus -31.8118 9.69733 84.8476
lradius 31.2885
lwrist -7.03277
lhand -10.6461 27.019
lfingers 7.12502
lthumb 15.3614 56.4284
rfemur -12.5703 5.48923 19.0955
rtibia 22.4118
rfoot -11.2891 -10.3622
rtoes 5.15278
lfemur -10.8407 -3.59139 -19.8577
ltibia 19.2378
lfoot -11.807 6.26052
ltoes -0.873021
96
root 0.893251 17.8285 -15.5495 6.58506 -2.94359 0.941201
lowerback 5.02377 -0.215148 -2.44156
upperback -0.535998 -0.34811 2.68421
thorax -3.34269 -0.103688 4.18079
lowerneck -16.0775 -4.06621 -10.6428
upperneck 22.1633 -4.21198 5.52579
head 10.0721 -2.21864 3.15837
rclavicle 8.94531e-016 -7.15625e-015
rhumerus -33.2579 -8.71934 -79.2907
rradius 36.7315
rwrist 2.66309
rhand -9.65275 13.4542
rfingers 7.12502
rthumb 16.318 -15.8793
lclavicle 8.94531e-016 -7.15625e-015
lhumerus -31.9966 9.67872 84.8135
lradius 31.3831
lwrist -6.98193
lhand -10.7667 27.496
lfingers 7.12502
lthumb 15.2452 56.9142
rfemur -12.5813 5.48476 19.086
rtibia 22.4012
rfoot -11.2628 -10.2777
rtoes 5.46538
lfemur -10.8653 -3.55822 -19.8643
ltibia 19.2483
lfoot -11.6967 6.26602
ltoes -0.692226
97
root 0.892252 17.8315 -15.5595 6.71294 -2.8686 0.950254
lowerback 5.09418 -0.231179 -2.46023
upperback -0.645274 -0.370209 2.69612
thorax -3.49351 -0.109585 4.2077
lowerneck -15.9904 -4.09623 -10.6665
upperneck 22.2203 -4.24657 5.47393
head 10.0792 -2.24467 3.14038
rclavicle -1.22253e-014 1.90833e-014
rhumerus -33.3779 -8.60952 -79.2951
rradius 36.9126
rwrist 2.59129
rhand -9.53522 13.299
rfingers 7.12502
rthumb 16.4312 -16.0251
lclavicle -1.22253e-014 1.90833e-014
lhumerus -32.0298 9.64057 84.8317
lradius 31.3057
lwrist -6.84182
lhand -10.954 27.2729
lfingers 7.12502
lthumb 15.0648 56.7047
rfemur -12.7423 5.39643 19.0612
rtibia 22.3907
rfoot -11.2584 -10.1883
rtoes 6.25017
lfemur -11.0933 -3.51592 -19.8573
ltibia 19.2888
lfoot -11.6342 6.13855
ltoes -0.125228
98
root 0.895104 17.8348 -15.5683 6.86536 -2.81185 0.949669
lowerback 5.01255 -0.217875 -2.3907
upperback -0.659562 -0.347639 2.67426
thorax -3.46474 -0.100254 4.1427
lowerneck -16.0354 -4.15633 -10.6792
upperneck 22.2665 -4.32371 5.47444
head 10.1119 -2.28116 3.132
rclavicle -9.0447e-015 1.11319e-014
rhumerus -33.3497 -8.61713 -79.3111
rradius 37.0339
rwrist 2.53414
rhand -9.43103 13.3196
rfingers 7.12502
rthumb 16.5315 -15.9962
lclavicle -9.0447e-015 1.11319e-014
lhumerus -31.9403 9.52788 84.8586
lradius 31.3523
lwrist -7.03717
lhand -10.6076 27.258
lfingers 7.12502
lthumb 15.3985 56.6645
rfemur -12.945 5.28365 19.0335
rtibia 22.3878
rfoot -11.2286 -10.0273
rtoes 6.9153
lfemur -11.3237 -3.5515 -19.8426
ltibia 19.3435
lfoot -11.5975 6.08828
ltoes -0.386385
99
root 0.896869 17.8356 -15.5728 6.88628 -2.86172 0.869965
lowerback 4.98726 -0.168531 -2.26384
upperback -0.559416 -0.275118 2.6577
thorax -3.35364 -0.0702833 4.04636
lowerneck -16.1922 -4.20532 -10.6756
upperneck 22.1955 -4.39373 5.55734
head 10.124 -2.30005 3.14882
rclavicle -6.36111e-015 -3.18055e-015
rhumerus -33.1927 -8.67345 -79.3805
rradius 37.14
rwrist 2.51639
rhand -9.34859 13.3124
rfingers 7.12502
rthumb 16.6109 -15.9968
lclavicle -6.36111e-015 -3.18055e-015
lhumerus -31.8184 9.47961 84.8648
lradius 31.4815
lwrist -7.26136
lhand -10.3263 27.2377
lfingers 7.12502
lthumb 15.6694 56.6232
rfemur -12.9902 5.28261 19.1033
rtibia 22.3888
rfoot -11.1685 -9.94212
rtoes 6.58768
lfemur -11.3951 -3.44163 -19.769
ltibia 19.4116
lfoot -11.5557 6.07051
ltoes -1.42304
100
root 0.896013 17.8344 -15.5775 6.8711 -2.8133 0.882209
lowerback 5.09828 -0.179795 -2.27068
upperback -0.538789 -0.292516 2.64252
thorax -3.39332 -0.0785403 4.0368
lowerneck -16.2924 -4.21827 -10.6303
upperneck 22.1539 -4.41262 5.56233
head 10.1285 -2.30216 3.13886
rclavicle -8.64713e-015 -3.4191e-014
rhumerus -33.0708 -8.59659 -79.452
rradius 37.1568
rwrist 2.453
rhand -9.41553 13.3143
rfingers 7.12502
rthumb 16.5464 -16.0002
lclavicle -8.64713e-015 -3.4191e-014
lhumerus -31.8104 9.37721 84.8848
lradius 31.5007
lwrist -6.98174
lhand -10.5509 26.7132
lfingers 7.12502
lthumb 15.4531 56.1155
rfemur -12.9641 5.29936 19.0958
rtibia 22.3833
rfoot -11.2131 -10.0295
rtoes 6.10577
lfemur -11.4376 -3.50629 -19.7661
ltibia 19.4718
lfoot -11.6351 6.07653
ltoes -1.10172
101
root 0.895459 17.8331 -15.5805 6.85984 -2.75231 0.902906
lowerback 5.20859 -0.198975 -2.29853
upperback -0.566403 -0.320552 2.65176
thorax -3.48151 -0.0898449 4.0661
lowerneck -16.2688 -4.22514 -10.6717
upperneck 22.1781 -4.41796 5.57612
head 10.1347 -2.30728 3.15049
rclavicle -1.0138e-014 -6.36111e-015
rhumerus -33.052 -8.44211 -79.4797
rradius 37.1781
rwrist 2.37651
rhand -9.49551 13.3655
rfingers 7.12502
rthumb 16.4694 -15.9555
lclavicle -1.0138e-014 -6.36111e-015
lhumerus -31.7583 9.33744 84.9254
lradius 31.3468
lwrist -6.84985
lhand -10.9336 26.1801
lfingers 7.12502
lthumb 15.0844 55.6105
rfemur -12.9533 5.23324 19.0809
rtibia 22.3741
rfoot -11.2536 -10.0874
rtoes 5.86921
lfemur -11.4469 -3.54289 -19.7833
ltibia 19.5048
lfoot -11.7311 6.07542
ltoes -0.450234
102
root 0.893815 17.8332 -15.5834 6.86831 -2.72091 0.878889
lowerback 5.20333 -0.1811 -2.25655
upperback -0.511378 -0.29519 2.63056
thorax -3.42395 -0.0800841 4.01743
lowerneck -16.3143 -4.24507 -10.6901
upperneck 22.1335 -4.45482 5.65861
head 10.1328 -2.31494 3.17695
rclavicle -1.65985e-014 3.65764e-014
rhumerus -32.9359 -8.43315 -79.5583
rradius 37.2448
rwrist 2.43139
rhand -9.52566 13.0203
rfingers 7.12502
rthumb 16.4404 -16.3031
lclavicle -1.65985e-014 3.65764e-014
lhumerus -31.5825 9.19953 84.9963
lradius 31.2892
lwrist -6.62788
lhand -11.3508 26.3136
lfingers 7.12502
lthumb 14.6825 55.7737
rfemur -12.9866 5.13452 19.1184
rtibia 22.3691
rfoot -11.1779 -10.0235
rtoes 5.80439
lfemur -11.453 -3.53711 -19.7559
ltibia 19.5143
lfoot -11.7259 6.04461
ltoes -0.888203
103
root 0.892487 17.835 -15.5859 6.92035 -2.62901 0.870341
lowerback 5.13632 -0.194735 -2.22606
upperback -0.462987 -0.311776 2.61289
thorax -3.33482 -0.0914067 3.9817
lowerneck -16.3735 -4.24799 -10.7062
upperneck 22.1083 -4.46678 5.73848
head 10.1381 -2.31132 3.20578
rclavicle -1.19271e-015 -1.82882e-014
rhumerus -32.8733 -8.39091 -79.6389
rradius 37.4365
rwrist 2.45472
rhand -9.59018 12.5566
rfingers 7.12502
rthumb 16.3783 -16.7718
lclavicle -1.19271e-015 -1.82882e-014
lhumerus -31.5601 8.77914 85.1931
lradius 31.4147
lwrist -5.50869
lhand -12.5645 26.0242
lfingers 7.12502
lthumb 13.513 55.5658
rfemur -13.046 5.02928 19.1374
rtibia 22.3636
rfoot -11.1001 -9.96823
rtoes 5.85043
lfemur -11.5234 -3.59919 -19.7239
ltibia 19.5059
lfoot -11.6942 5.95821
ltoes -1.22425
104
root 0.89301 17.8343 -15.5891 6.9448 -2.5592 0.893274
lowerback 5.17343 -0.212788 -2.2078
upperback -0.474123 -0.33579 2.58936
thorax -3.36537 -0.103208 3.94922
lowerneck -16.3792 -4.24129 -10.6841
upperneck 22.1393 -4.46039 5.72522
head 10.1488 -2.30837 3.19866
rclavicle -1.39149e-015 -2.78299e-014
rhumerus -32.973 -8.27183 -79.7085
rradius 37.695
rwrist 2.39088
rhand -9.51444 12.4868
rfingers 7.12502
rthumb 16.4512 -16.8356
lclavicle -1.39149e-015 -2.78299e-014
lhumerus -31.6521 8.97521 85.024
lradius 31.6179
lwrist -6.47445
lhand -11.298 26.1837
lfingers 7.12502
lthumb 14.7334 55.6401
rfemur -13.069 4.99142 19.1049
rtibia 22.3821
rfoot -11.1429 -9.95581
rtoes 6.3166
lfemur -11.5418 -3.6993 -19.7373
ltibia 19.4639
lfoot -11.6852 6.02643
ltoes -1.08849
